<?xml version="1.0" encoding="UTF-8" standalone="no"?>
<!-- Created with Inkscape (http://www.inkscape.org/) -->

<svg
   version="1.1"
   id="svg1"
   width="868.47992"
   height="1081.3497"
   viewBox="0 0 868.47996 1081.3497"
   sodipodi:docname="60b.svg"
   inkscape:version="1.3.2 (091e20ef0f, 2023-11-25)"
   xmlns:inkscape="http://www.inkscape.org/namespaces/inkscape"
   xmlns:sodipodi="http://sodipodi.sourceforge.net/DTD/sodipodi-0.dtd"
   xmlns="http://www.w3.org/2000/svg"
   xmlns:svg="http://www.w3.org/2000/svg">
  <defs
     id="defs1" />
  <sodipodi:namedview
     id="namedview1"
     pagecolor="#ffffff"
     bordercolor="#000000"
     borderopacity="0.25"
     inkscape:showpageshadow="2"
     inkscape:pageopacity="0.0"
     inkscape:pagecheckerboard="0"
     inkscape:deskcolor="#d1d1d1"
     showgrid="false"
     inkscape:zoom="0.60495988"
     inkscape:cx="476.89113"
     inkscape:cy="549.62322"
     inkscape:window-width="1920"
     inkscape:window-height="1011"
     inkscape:window-x="0"
     inkscape:window-y="0"
     inkscape:window-maximized="1"
     inkscape:current-layer="layer1" />
  <g
     inkscape:groupmode="layer"
     id="layer1"
     inkscape:label="Layer 1"
     transform="translate(-61.941159,-115.98363)">
    <path
       style="fill:#000000"
       d="m 491.40961,1190.0106 c -30.89702,-19.3978 -84.7632,-64.6566 -97.40964,-81.8444 -2.2,-2.99 -4.37402,-5.4506 -4.83115,-5.4679 -0.45713,-0.017 -5.282,2.6436 -10.72192,5.9133 -20.04256,12.0466 -49.73156,21.7582 -75.77022,24.7853 -21.20614,2.4654 -41.26671,0.027 -57.6767,-7.0094 -7.46144,-3.1996 -8.60123,-7.3897 -2.84771,-10.4689 9.70696,-5.195 20.96876,-22.6356 25.74441,-39.8692 4.87008,-17.5742 7.18235,-53.1248 3.41379,-52.4862 -0.74589,0.1264 -6.44589,1.3264 -12.66666,2.6667 -8.26604,1.7809 -16.87336,2.4282 -31.97716,2.4047 -23.56202,-0.037 -34.18149,-2.2827 -52,-10.9987 -16.81944,-8.2272 -42.38485,-36.16449 -39.63994,-43.31762 0.48667,-1.26823 3.86017,-2.72143 8.55506,-3.68527 20.65076,-4.23951 41.62901,-13.03118 59.60448,-24.97935 13.19505,-8.77066 40.19535,-36.04976 37.92675,-38.31837 -0.3257,-0.32569 -6.85937,1.21918 -14.51927,3.43306 -22.19896,6.416 -42.26772,9.4912 -62.59374,9.59146 -19.94203,0.0984 -29.4634,-1.7133 -43.57281,-8.29076 -9.05551,-4.22146 -20.427188,-13.82797 -20.427188,-17.25637 0,-1.1996 3.354778,-4.8012 7.455058,-8.00356 22.44618,-17.53069 40.29282,-53.83636 39.00457,-79.34751 -0.4347,-8.60822 -1.08133,-10.50657 -6.64198,-19.49911 -10.53228,-17.03254 -10.37969,-16.50705 -10.3471,-35.6354 0.0218,-12.81901 -0.51815,-18.65773 -2.06877,-22.3689 l -2.09833,-5.02201 -11.65173,0.87711 c -6.40844,0.48241 -19.151717,2.36948 -28.318383,4.19348 -9.166666,1.82401 -18.035496,3.31868 -19.708512,3.32149 -6.219627,0.0104 -4.741678,-3.81118 5.797815,-14.99177 11.378976,-12.07113 20.775756,-24.23049 24.769854,-32.052 1.41803,-2.77688 4.360786,-13.87688 6.539456,-24.66666 7.91455,-39.19647 12.62238,-51.73709 23.98065,-63.87911 8.47789,-9.06289 12.7061,-14.76444 11.69728,-15.77326 -1.46233,-1.46233 -34.70379,11.27405 -36.34168,13.92422 -1.26564,2.04785 -6.981999,1.79347 -7.803473,-0.34726 -0.377986,-0.98501 4.104694,-9.83501 9.961513,-19.66666 11.63711,-19.53486 21.21084,-37.89332 23.59133,-45.23845 1.08647,-3.35237 1.2137,-12.31775 0.44467,-31.33333 -1.25545,-31.0431 -0.19607,-52.06438 3.16181,-62.73998 2.99418,-9.51925 11.87412,-19.40576 29.45787,-32.79699 12.00669,-9.14393 12.63321,-9.86611 11.89371,-13.70969 -0.93262,-4.84735 -5.13618,-8.48781 -16.40536,-14.20775 -8.49093,-4.30977 -12.42162,-4.77578 -29.7036,-3.52157 -11.73161,0.85141 -2.1287,-11.49084 20,-25.70523 17.89207,-11.49298 33.929,-16.92049 53.08556,-17.96616 6.44269,-0.35168 10.24776,-1.12269 10.24776,-2.07647 0,-1.80719 -10.98342,-7.91346 -14.23402,-7.91346 -1.25139,0 -2.62466,-0.56534 -3.0517,-1.2563 -0.65856,-1.06558 -3.18518,-1.66012 -14.71427,-3.46243 -0.73334,-0.11464 -2.53334,-0.31891 -4,-0.45393 -1.46667,-0.13502 -3.86667,-1.16726 -5.33334,-2.29387 -2.6231,-2.01493 -2.60132,-2.10125 1.33334,-5.28431 2.2,-1.77976 4.75,-3.2389 5.66666,-3.24254 0.91667,-0.004 1.66667,-0.60662 1.66667,-1.33996 0,-0.73333 0.79831,-1.33333 1.77403,-1.33333 0.97572,0 4.72571,-1.49749 8.33333,-3.32775 3.60762,-1.83027 7.60931,-3.33027 8.89264,-3.33334 1.28333,-0.003 2.33333,-0.50449 2.33333,-1.11428 0,-0.60978 2.55,-1.75817 5.66667,-2.55197 3.11666,-0.79381 8.28053,-2.41394 11.47525,-3.60031 3.19472,-1.18636 9.19472,-2.48973 13.33333,-2.89639 4.13861,-0.40665 9.02475,-0.91023 10.85808,-1.11907 1.83334,-0.20883 4.07828,-0.45707 4.98878,-0.55163 1.03093,-0.10707 1.48694,-1.71109 1.20878,-4.25193 -0.56739,-5.18286 -12.46609,-17.5106 -20.79089,-21.54056 -3.26736,-1.5817 -9.87051,-3.21414 -14.67366,-3.62763 -8.07723,-0.69536 -8.73301,-0.98823 -8.73301,-3.90017 0,-6.62236 28.60361,-19.39932 51.41786,-22.96787 10.66485,-1.66818 30.51245,-0.89319 39.0405,1.5244 2.81876,0.79909 5.51876,1.05015 6,0.55793 1.86123,-1.90374 -12.81732,-13.07964 -24.61751,-18.74318 -6.81089,-3.26891 -12.78235,-6.58892 -13.26991,-7.37781 -1.70221,-2.75424 2.93769,-5.18939 14.80588,-7.77055 24.24995,-5.27402 48.51133,-6.29283 65.09061,-2.73336 5.06613,1.08767 5.12318,1.0552 4.30896,-2.4528 -3.65992,-15.7685 -4.68802,-25.82984 -4.72988,-46.28841 -0.0597,-29.15886 0.7759,-30.33657 14.27193,-20.11617 18.69483,14.15741 43.36631,27.71651 59.48866,32.69414 17.14976,5.29484 26.78952,3.62425 68.07353,-11.79726 30.48156,-11.38628 37.84624,-13.38071 49.41005,-13.38071 11.30203,0 21.9727,3.53839 47.89236,15.88109 10.91735,5.19873 21.26169,9.45225 22.98743,9.45225 1.72574,0 9.35266,-2.36336 16.94871,-5.25191 21.15246,-8.04365 32.30663,-9.86327 55.40562,-9.03853 22.51965,0.80406 36.7925,3.8521 51.76905,11.05553 10.67578,5.13484 20.37278,13.40525 20.37278,17.3756 0,1.74618 -4.30046,5.4701 -13.601,11.77759 l -13.60099,9.224 30.60099,7.61572 c 39.95225,9.94299 48.38468,12.92377 55.601,19.65437 3.85013,3.59099 4.82472,8.69906 2,10.48257 -0.91667,0.57878 -6.28375,2.95075 -11.92684,5.27105 -5.6431,2.32029 -13.89065,6.42411 -18.3279,9.1196 -10.102,6.13664 -23.09153,17.88887 -22.23612,20.11805 0.3544,0.92353 -0.51886,2.73184 -1.94057,4.01847 -3.37441,3.0538 -2.33996,3.86927 5.21053,4.10754 11.83217,0.37339 21.2938,1.72771 27.07898,3.87604 3.19472,1.18637 8.35858,2.8065 11.47525,3.60031 3.11667,0.7938 5.66667,1.94219 5.66667,2.55197 0,0.60979 1.05,1.11121 2.33333,1.11428 1.28333,0.003 5.28502,1.50307 8.89264,3.33333 3.60761,1.83027 7.35761,3.32776 8.33333,3.32776 0.97571,0 1.77403,0.6 1.77403,1.33333 0,0.73333 0.75,1.33631 1.66666,1.33996 0.91667,0.004 3.46667,1.46278 5.66667,3.24254 3.93466,3.18306 3.95644,3.26938 1.33333,5.28431 -1.46666,1.12661 -3.86666,2.15885 -5.33333,2.29387 -1.46667,0.13502 -3.26667,0.33929 -4,0.45393 -11.52909,1.80231 -14.05571,2.39685 -14.71428,3.46243 -0.42703,0.69096 -1.8003,1.2563 -3.0517,1.2563 -3.25059,0 -14.23402,6.10627 -14.23402,7.91345 0,0.95379 3.80508,1.72479 10.24777,2.07647 19.15656,1.04568 35.19349,6.47319 53.08556,17.96617 9.53109,6.12231 8.78637,5.55252 17.73012,13.56529 5.47214,4.90252 7.61422,7.73652 7.33334,9.70205 -0.32696,2.28793 -1.21806,2.71697 -5.06346,2.43789 -17.4437,-1.26595 -21.17719,-0.80621 -30.05763,3.70126 -4.80645,2.43963 -9.04586,4.9322 -9.42092,5.53905 -1.16735,1.88881 4.55272,3.27777 34.14522,8.29119 36.85372,6.24359 34.66666,5.67793 34.66666,8.96611 0,1.6231 -6.3438,10.09973 -15.28419,20.42283 l -15.28419,17.64803 6.03807,11.88511 c 4.93082,9.70565 6.21408,13.74922 6.99794,22.05063 0.77281,8.18437 1.68699,11.11881 4.69078,15.05699 4.52477,5.93228 13.80497,13.43915 28.58074,23.11933 7.51562,4.92377 10.94213,7.9614 10.66667,9.45609 -0.25738,1.3966 -12.69664,8.29834 -34.00783,18.86874 -18.4811,9.16666 -33.9879,17.07346 -34.45955,17.57066 -0.47165,0.4972 3.20762,5.8972 8.17615,12 19.67247,24.16353 26.79426,38.09501 28.65162,56.04757 1.52613,14.75112 9.07166,38.01881 21.3109,65.71511 4.53693,10.26667 8.53784,20.27678 8.89091,22.24469 0.577,3.21599 0.12204,3.71264 -4.49636,4.90832 -16.9032,4.37615 -54.02767,9.51366 -68.74731,9.51366 h -10.44521 l 2.79298,5.47469 c 4.6217,9.05927 6.54646,21.66044 6.5714,43.02207 l 0.0231,19.83009 8.16117,8.72431 c 9.54983,10.20881 15.83625,22.38084 15.83778,30.66578 6.1e-4,3.29803 -1.89517,10.63196 -4.48055,17.33333 -10.08487,26.1402 -15.28844,63.81427 -9.76797,70.72042 2.14522,2.68369 13.53283,8.16817 26.91624,12.96334 9.34088,3.34677 12.09241,4.90835 12.41702,7.04709 0.54032,3.5599 -7.44795,9.53101 -21.75036,16.25804 -30.99331,14.57747 -63.45519,14.35028 -93.26907,-0.65276 -13.2501,-6.66776 -13.12209,-6.69843 -15.35444,3.67924 -4.28147,19.90364 2.6221,36.67897 24.35568,59.18308 14.74754,15.2704 14.82426,16.761 0.92191,17.9104 -5.49307,0.4541 -19.2874,0.8952 -30.65407,0.9802 -22.09761,0.1653 -32.90643,-1.4933 -42.87601,-6.5794 l -5.45874,-2.7849 0.92269,9.1125 c 2.46033,24.2982 10.77167,55.3075 19.41983,72.4547 7.18235,14.2408 20.3478,29.2174 30.32557,34.4974 3.38238,1.7899 4.02059,6.5191 1.03439,7.665 -1.08109,0.4149 -9.63109,-1.0816 -19,-3.3255 -33.4071,-8.0012 -48.13812,-9.9566 -77.70105,-10.3138 -35.34976,-0.4272 -50.2589,-3.5747 -78.12131,-16.4921 l -10.78798,-5.0015 -11.49906,16.1475 c -23.55643,33.079 -50.78743,66.0461 -59.59728,72.1514 -2.6424,1.8312 -6.33056,3.3294 -8.1959,3.3294 -1.86535,0 -8.64032,-3.2953 -15.05548,-7.3228 z"
       id="path1" />
    <path
       id="path2"
       style="fill:#803300"
       d="M 347.99975 128.04418 L 347.99975 144.51488 C 347.99975 164.08327 350.82774 182.08648 355.3728 191.46605 C 361.05951 203.20164 359.58733 205.10175 347.99975 200.98754 C 338.25408 197.5273 310.95478 196.35634 293.09741 198.63207 C 285.89401 199.55006 279.99975 200.68298 279.99975 201.1516 C 279.99975 201.62022 282.5491 203.35992 285.66577 205.01683 C 294.43137 209.67689 303.48072 218.08767 306.54858 224.42504 C 309.70921 230.95401 310.20476 238.41599 307.54467 239.43676 C 306.56095 239.81425 301.01028 238.48931 295.21069 236.49144 C 276.16318 229.92986 247.50436 231.98866 225.7771 241.48168 L 219.33374 244.29808 L 224.31616 246.07347 C 230.77197 248.37382 239.31422 254.35374 245.93725 261.21019 C 248.83607 264.21118 251.88539 266.66722 252.71264 266.66722 C 254.55652 266.66722 256.89157 271.20292 258.0271 276.99144 C 258.49379 279.37041 259.78329 281.82587 260.89233 282.44652 C 262.06721 283.10401 262.71933 284.91441 262.45483 286.78636 C 262.01126 289.92566 261.69393 290.00379 248.66577 290.14183 C 236.242 290.27347 211.89311 294.83585 203.33374 298.63597 C 198.25392 300.89128 191.32247 303.7176 188.99975 304.48168 C 185.23762 305.71927 186.30933 307.59233 191.23608 308.39183 C 204.67762 310.57309 221.29265 322.74545 223.10913 331.74144 C 224.02979 336.30095 220.91532 338.95933 216.11694 337.71019 C 207.11387 335.36645 175.99975 338.31731 175.99975 341.51488 C 175.99975 342.148 175.01077 342.66722 173.80053 342.66722 C 169.0413 342.66722 139.99975 358.80713 139.99975 361.45238 C 139.99975 362.71592 140.24478 362.81264 144.72046 363.30785 C 150.20743 363.91495 158.19518 367.11451 165.99585 371.83129 C 170.39345 374.49035 175.1839 377.27983 176.64038 378.02855 C 178.71261 379.0938 179.31764 380.8352 179.42553 386.04027 C 179.50133 389.69872 180.20722 393.89457 180.99389 395.36449 C 182.56478 398.29972 180.42591 402.66722 177.41772 402.66722 C 175.06717 402.66722 160.76256 413.84347 150.31421 423.84301 C 136.67982 436.8917 136.68524 436.87174 136.67553 489.37816 L 136.66577 532.75511 L 129.86694 546.71019 C 126.1271 554.38577 120.32049 565.1604 116.96264 570.6516 C 113.6048 576.14278 111.07193 580.85073 111.33569 581.11449 C 111.59945 581.37825 115.00736 580.41238 118.90796 578.968 C 122.80855 577.52363 131.57547 574.71274 138.39038 572.72191 C 148.24747 569.84238 151.17899 569.43156 152.72436 570.7141 C 153.79277 571.60081 154.66577 572.80191 154.66577 573.38402 C 154.66577 575.72017 141.1515 594.37537 135.38452 599.99925 C 132.00056 603.29925 127.79258 608.39991 126.03491 611.33324 C 121.86335 618.29502 115.64761 639.7807 110.72046 664.26879 C 108.47178 675.44475 105.36712 686.65413 103.49585 690.34691 C 99.941174 697.36173 91.759808 708.38958 84.234128 716.3098 C 81.633913 719.04634 79.768627 721.51322 80.087643 721.79222 C 80.40666 722.07123 86.965776 721.20382 94.665768 719.86449 C 110.53108 717.1049 125.54314 716.63791 129.54663 718.7805 C 131.03407 719.57655 133.50063 723.0259 135.02905 726.44652 C 137.36383 731.67179 137.84787 735.65008 138.05835 751.33324 L 138.3103 769.99925 L 145.38061 781.33324 C 154.48209 795.91949 156.41395 802.16998 155.27124 813.33324 C 152.46659 840.73194 139.82572 866.85383 119.74975 886.73168 L 110.58764 895.80394 L 114.96069 899.08324 C 128.82513 909.47967 141.81899 912.48229 169.33374 911.64769 C 192.85028 910.93437 210.83192 907.47312 237.94507 898.44261 C 252.82448 893.48678 254.00229 893.28716 255.57983 895.44457 C 260.57619 902.27749 230.85556 936.95316 204.91577 954.5559 C 194.68659 961.49741 172.41697 971.55734 158.66577 975.44847 C 151.69912 977.4198 145.78584 979.2135 145.52514 979.4348 C 145.26443 979.6561 147.80605 983.41645 151.17163 987.79027 C 174.26907 1017.8072 217.38208 1028.3049 266.52319 1015.8782 C 274.84947 1013.7727 277.98757 1013.4543 279.13647 1014.6008 C 281.34594 1016.8058 281.87859 1042.2821 280.02319 1057.0227 C 276.94459 1081.4811 269.90489 1099.2961 257.89038 1113.0305 C 253.75712 1117.7554 252.36187 1120.2044 253.56225 1120.6282 C 254.53657 1120.9722 257.01614 1121.8697 259.07397 1122.6223 C 261.1318 1123.3749 268.29061 1124.6104 274.98217 1125.3684 C 296.85619 1127.8463 324.8827 1123.0058 352.30444 1112.011 C 366.48237 1106.3264 382.95982 1096.8661 386.96264 1092.1145 C 389.8631 1088.6715 392.60354 1089.6877 394.81421 1095.0246 C 398.92463 1104.9481 436.43408 1139.7297 471.45874 1166.0969 C 486.41533 1177.3564 504.81146 1189.3332 507.15014 1189.3332 C 507.85047 1189.3332 512.72666 1184.8601 517.98608 1179.3918 C 529.50598 1167.4146 549.33706 1142.3804 566.95483 1117.5735 C 574.07951 1107.5415 580.77445 1098.1339 581.83374 1096.6672 C 583.71067 1094.0685 583.85636 1094.0616 587.54663 1096.4211 C 593.83753 1100.4433 612.11805 1108.7649 621.35132 1111.8098 C 637.92324 1117.275 647.74379 1118.62 671.33374 1118.6516 C 693.94769 1118.6816 719.88743 1121.4974 739.86303 1126.0911 C 744.55415 1127.1699 748.6752 1127.7692 749.02124 1127.4231 C 749.36729 1127.0771 747.62844 1124.4324 745.15796 1121.5461 C 726.87037 1100.1807 712.70716 1054.4653 711.63061 1013.3332 C 711.35286 1002.7213 711.51206 1001.9737 714.13647 1001.5989 C 715.94312 1001.341 717.71681 1002.3866 719.12671 1004.5383 C 722.2514 1009.3072 731.32141 1014.2252 741.35132 1016.5891 C 750.28508 1018.6947 776.98916 1019.3948 788.45288 1017.8235 L 794.60913 1016.9778 L 787.74389 1009.4895 C 772.36926 992.71704 763.97258 975.08628 764.03296 959.70824 C 764.07786 948.27464 769.41497 927.48312 772.45483 926.89769 C 773.71267 926.65546 778.05032 928.65409 782.09546 931.3391 C 812.94108 951.81326 848.257 953.37435 883.05835 935.80199 L 891.33374 931.6223 L 886.66577 929.58715 C 869.66381 922.17094 859.8583 916.90573 857.52905 913.94457 C 853.37803 908.66741 852.70141 898.13725 855.32397 879.62425 C 857.81176 862.06257 861.99586 846.0156 867.48999 832.96215 C 873.13334 819.55415 870.87065 812.13378 855.89233 794.91332 L 846.66577 784.3059 L 846.64428 764.48558 C 846.61038 735.49735 843.56018 723.41805 833.67358 713.09496 C 826.11471 705.20236 827.85162 703.85272 844.28686 704.85668 C 859.07354 705.75994 875.87882 704.2744 902.44702 699.7141 C 921.78951 696.39404 920.98642 699.13797 909.9646 673.99925 C 898.77971 648.48857 892.24572 627.91006 890.75561 613.50707 C 888.86181 595.2022 881.38723 581.25158 859.19116 554.58324 C 852.98927 547.13174 849.40966 541.72494 849.87475 540.51293 C 850.29021 539.43026 865.6935 531.22228 884.10327 522.27269 L 917.57397 505.99926 L 909.12085 500.09886 C 886.73328 484.47056 878.66577 474.68545 878.66577 463.15551 C 878.66577 454.95513 875.25063 445.02631 868.66577 434.09105 C 866.09972 429.82972 863.99975 425.66131 863.99975 424.82738 C 863.99975 423.99346 870.32824 415.95715 878.06225 406.96996 C 886.64474 396.99682 891.44926 390.41853 890.39428 390.08519 C 889.44359 389.78481 879.14692 387.94154 867.51147 385.98949 C 855.87602 384.03744 842.97665 381.52391 838.84546 380.40551 C 834.71425 379.28709 829.90798 378.18379 828.16577 377.95238 C 823.96674 377.39465 822.61836 375.86895 822.281 371.29418 C 822.08693 368.66236 822.82201 367.0578 824.67163 366.07933 C 826.14069 365.30218 830.94004 362.49035 835.33764 359.83129 C 843.13831 355.11451 851.12606 351.91495 856.61303 351.30785 C 861.08871 350.81264 861.33374 350.71592 861.33374 349.45238 C 861.33374 346.80713 832.29219 330.66722 827.53296 330.66722 C 826.32272 330.66722 825.33374 330.14801 825.33374 329.51488 C 825.33374 326.31732 794.21768 323.36645 785.2146 325.71019 C 780.41622 326.95933 777.3037 324.30095 778.22436 319.74144 C 780.04084 310.74545 796.65587 298.57309 810.09741 296.39183 C 815.01955 295.59307 816.10391 293.7081 812.33374 292.50316 C 809.94543 291.73987 808.15297 291.01446 799.99975 287.50511 C 789.18626 282.85073 766.09949 278.28417 752.66577 278.14183 C 739.6376 278.00379 739.32223 277.92566 738.87866 274.78636 C 738.61802 272.94172 739.26395 271.10448 740.39428 270.47191 C 741.47707 269.86594 742.75096 267.30592 743.22436 264.78246 C 744.30601 259.0168 753.62978 248.48731 764.50952 240.74535 C 772.58392 234.99963 793.13568 223.99926 795.79663 223.99926 C 796.55508 223.99926 797.55576 223.38596 798.01928 222.63597 C 799.95593 219.50242 777.3748 212.06594 737.52514 202.71215 C 700.61103 194.0474 699.87936 192.8801 722.01928 177.9973 C 729.65405 172.86511 735.92357 168.2244 735.95092 167.6848 C 735.97832 167.14521 733.74684 165.21365 730.99389 163.39183 C 711.68427 150.61333 672.70549 144.54932 645.61108 150.10863 C 639.95867 151.26841 629.07553 154.56907 621.42749 157.44261 C 613.69994 160.34604 605.14117 162.66722 602.16382 162.66722 C 598.32404 162.66722 591.49845 160.15422 578.07007 153.79808 C 567.76485 148.92026 554.53242 143.16079 548.66577 140.99926 C 534.25373 135.68922 525.00308 136.24113 503.99975 143.66527 C 444.32169 164.75993 445.22861 164.48749 432.66577 165.06761 C 422.34643 165.54413 419.21313 165.13496 410.30835 162.14574 C 396.22656 157.41864 379.49584 148.82399 362.33374 137.50121 L 347.99975 128.04418 z M 448.19116 286.66722 C 455.40681 286.66722 473.02953 287.88219 487.35327 289.3684 C 512.54377 291.98212 513.80004 291.99429 525.69897 289.73754 C 535.31626 287.91353 545.12747 287.40459 570.66577 287.40551 C 602.79913 287.4065 615.45377 288.53836 639.99975 293.60668 C 647.83924 295.2254 653.67893 295.42605 672.69116 294.72386 C 682.06664 294.37758 685.6851 294.78032 689.11499 296.55394 C 691.53447 297.80511 694.18645 298.605 695.00757 298.33129 C 696.43983 297.85387 701.41025 301.88341 701.25952 303.39965 C 701.21942 303.80296 704.22073 307.45128 707.92749 311.50707 C 711.63424 315.56284 714.66577 319.46924 714.66577 320.18676 C 714.66577 320.90426 715.26246 321.12272 715.98999 320.67308 C 717.79382 319.55825 721.1977 321.62832 723.09741 324.99535 C 724.51469 327.50734 742.74381 350.46388 749.8103 358.63597 C 755.59626 365.3272 758.5612 369.75878 757.93335 370.77465 C 756.97088 372.33196 763.56376 381.47444 768.70483 385.71215 C 771.18394 387.75563 772.92237 390.1835 772.56811 391.10668 C 772.21385 392.02986 775.16698 399.65914 779.12866 408.0598 C 794.66777 441.01026 799.24497 465.79445 793.87671 487.91527 C 790.80485 500.57334 779.35948 523.67448 767.42358 541.3098 C 761.72457 549.73011 746.43228 570.43014 733.44116 587.3098 C 720.45003 604.18945 706.25138 623.09992 701.88842 629.33324 C 687.50202 649.88704 688.84003 644.96818 688.6521 677.99925 C 688.51397 702.27755 688.07364 708.59765 686.0935 714.66722 C 681.79907 727.83064 675.91172 737.66932 666.99585 746.58519 C 658.38326 755.19778 658.29186 755.36425 654.43139 769.96215 C 652.12662 778.67737 647.55067 790.8261 643.19311 799.79027 C 636.96305 812.60649 634.27685 816.49545 625.58764 825.28246 C 619.94817 830.98541 612.75453 836.95706 609.60327 838.55199 C 602.17248 842.31291 590.58952 843.57654 573.99975 842.4348 C 530.15782 839.41753 487.08967 839.66566 448.66577 843.15746 C 446.46577 843.35739 440.91425 843.06444 436.32788 842.50707 C 431.4219 841.91087 425.25851 840.00739 421.35717 837.88402 C 412.90384 833.28314 399.18438 819.04226 393.02124 808.46996 C 387.06055 798.24495 379.70637 779.74947 376.46655 766.83715 C 374.23327 757.93639 373.4783 756.6458 368.47827 753.20433 C 356.12567 744.70219 344.76214 726.85988 341.41577 710.71215 C 339.14373 699.74856 338.33868 677.1938 339.61303 660.1555 L 340.74975 644.97777 L 333.23608 633.968 C 329.10412 627.91276 318.91019 614.04244 310.58178 603.14574 C 302.25337 592.24903 289.94807 576.13323 283.23803 567.33324 C 242.22386 513.54441 230.96753 484.25462 238.07788 449.83129 C 242.20011 429.87424 257.19464 394.73198 264.88452 387.00707 C 269.76352 382.10583 277.23761 368.43827 275.81616 367.01683 C 275.01601 366.21668 276.65897 363.54127 280.27514 359.75316 C 283.42392 356.45467 292.46899 345.88776 300.37671 336.27074 C 309.55825 325.10453 315.41764 319.03977 316.5896 319.48949 C 317.66267 319.90126 318.7829 319.06561 319.28686 317.47777 C 320.386 314.01468 330.20358 305.34197 336.86889 301.94652 C 339.69088 300.50894 342.47972 298.58389 343.06616 297.66722 C 343.6526 296.75056 346.18266 295.99926 348.68725 295.99926 C 351.19185 295.99926 356.01969 295.05526 359.41772 293.9016 C 364.60901 292.13911 367.1207 292.04677 375.13257 293.32152 C 380.37682 294.15592 386.83629 295.40122 389.48803 296.08715 C 396.93731 298.01403 401.58026 297.57865 406.66382 294.47972 C 413.48547 290.32124 432.911 286.66722 448.19116 286.66722 z " />
    <path
       style="fill:#ffb380"
       d="m 493.66663,831.92305 c 17.745,-1.32061 26.92166,-1.3253 44.66666,-0.0228 33.23509,2.43942 54.14402,3.22387 59.44134,2.23008 12.27596,-2.30298 27.97322,-17.76278 37.75205,-37.18094 4.96568,-9.86053 12.47327,-31.10398 12.47327,-35.29433 0,-2.41749 -0.45998,-2.5131 -5.99587,-1.24631 -7.25669,1.66057 -10.12042,1.14842 -49.33746,-8.82357 -76.53394,-19.4608 -79.32735,-19.46044 -157.33332,0.0199 -29.4571,7.35629 -41.49357,9.82224 -45.66666,9.35586 -6.83006,-0.76333 -6.82403,-0.80149 -2.20711,13.9703 9.01881,28.85562 24.16451,49.66221 42.05024,57.76702 5.14462,2.33126 25.76299,2.08213 64.15686,-0.77519 z"
       id="path4" />
    <path
       id="path5"
       style="fill:#ffb380"
       d="M 447.30249 294.64965 C 435.94958 294.63135 419.13696 297.63622 412.82397 300.81176 C 406.2458 304.12067 394.84714 304.53963 381.50952 301.96215 C 370.81108 299.89466 368.02566 299.80745 359.78296 301.28051 C 348.27191 303.33762 336.76116 308.41683 331.16577 313.90941 C 324.60184 320.35269 307.98449 339.59324 298.26928 351.99926 C 293.38796 358.23256 287.85644 365.24252 285.97827 367.57543 C 284.10009 369.90829 280.72011 375.30833 278.46655 379.57543 C 276.213 383.84248 272.89289 389.30155 271.08764 391.70629 C 266.89228 397.29485 254.46453 423.43508 250.75171 434.48168 C 235.54857 479.71455 243.88855 502.88688 302.94702 579.51488 C 314.89317 595.01491 328.64444 613.1901 333.50561 619.90355 L 342.3435 632.11058 L 343.93335 621.0559 C 347.69166 594.91724 354.93192 569.20517 359.50366 565.75902 C 362.06133 563.83106 365.33374 564.89076 365.33374 567.64769 C 365.33374 568.76384 363.89544 573.66359 362.13842 578.53441 C 353.52937 602.40072 348.92941 635.73383 348.781 675.33324 C 348.67364 703.97866 348.86747 706.5811 351.71264 714.81175 C 359.15912 736.35307 375.32006 751.50126 392.66577 753.19652 C 393.3991 753.26822 410.49919 749.18717 430.66577 744.12816 C 466.28933 735.19163 495.65728 729.33324 504.83374 729.33324 L 509.33374 729.33324 L 509.31616 699.66722 L 509.30053 669.99925 L 504.82202 659.74144 C 498.96242 646.32065 493.3867 639.4028 486.29858 636.76097 C 483.20139 635.60661 472.86703 633.15365 463.33374 631.3098 C 451.27927 628.97832 443.10433 626.5454 436.49389 623.31957 C 426.43498 618.41084 416.86026 609.44761 418.13257 606.13207 C 419.63334 602.22101 422.82068 602.75333 428.38647 607.843 C 434.92246 613.81992 442.5563 618.04411 443.93335 616.44652 C 444.46121 615.83411 445.90654 612.57332 447.14624 609.20043 C 452.74877 593.95717 463.60257 587.24151 480.97827 588.26488 C 489.66932 588.77676 492.81299 589.66171 500.53491 593.77074 C 505.59539 596.46356 511.5889 598.66722 513.85522 598.66722 C 516.12155 598.66722 522.48157 596.42874 527.98803 593.69457 C 540.21978 587.62097 553.58882 586.20716 563.39038 589.95043 C 570.83823 592.79476 579.14507 602.07221 582.03491 610.77269 C 583.23343 614.38107 584.77758 617.33324 585.46655 617.33324 C 587.47356 617.33324 596.28786 611.3656 601.02319 606.80004 C 604.63735 603.31542 605.83084 602.83962 608.02319 604.01293 C 612.01355 606.14847 611.2672 608.43918 604.57202 614.61058 C 595.52878 622.94634 584.28925 627.60306 563.82007 631.49535 C 554.01874 633.35911 543.58774 635.94103 540.64038 637.23168 C 534.02893 640.12675 526.48 650.59371 521.89624 663.22191 C 518.85485 671.6008 518.66577 673.79563 518.66577 700.72777 L 518.66577 729.33324 L 523.91186 729.33324 C 532.73087 729.33324 563.38732 735.53714 599.79663 744.69066 C 639.66607 754.71409 641.02059 754.75048 653.79272 746.13402 C 662.94957 739.95653 671.23671 728.91667 676.07202 716.45433 C 678.65132 709.80656 679.18131 705.43086 679.69507 686.54808 C 680.8389 644.50587 674.49281 598.82658 663.82788 572.3391 C 662.31114 568.57209 662.37322 567.72149 664.30835 565.78636 C 666.07312 564.02159 666.93212 563.89379 668.46655 565.16722 C 673.08 568.99604 679.53339 590.84516 683.28296 615.33324 C 684.51807 623.39987 685.8071 631.39533 686.14819 633.10082 C 686.68044 635.76214 687.99314 634.47245 695.406 623.99925 C 700.15646 617.28764 714.75297 597.8915 727.8435 580.89769 C 765.18781 532.41844 779.95857 508.35115 785.38452 487.13597 C 789.74737 470.07731 788.23431 454.9116 779.7771 430.88793 C 774.93172 417.12411 757.03023 381.34506 753.29858 377.96801 C 751.85123 376.65817 750.66577 374.46121 750.66577 373.08519 C 750.66577 371.70916 749.76075 370.2364 748.65405 369.81176 C 747.54735 369.38708 741.9282 362.95439 736.16772 355.51879 C 730.40727 348.08315 721.11291 337.04477 715.51342 330.98949 C 709.91398 324.93421 705.33374 319.12777 705.33374 318.08519 C 705.33374 315.58317 686.69095 304.02567 680.34741 302.59496 C 677.57173 301.96895 667.53018 302.03383 657.62866 302.74144 C 642.91415 303.79302 639.24573 303.67925 636.14428 302.07543 C 623.67959 295.62964 557.49642 293.0297 527.99975 297.82738 C 512.81082 300.29789 512.40937 300.29406 485.30249 297.4934 C 470.25202 295.93838 453.15195 294.65904 447.30249 294.64965 z M 459.07397 329.35277 C 460.43694 329.27754 461.65076 329.94428 462.23022 331.45433 C 463.77717 335.48561 458.93956 342.33667 450.08178 348.65746 C 445.27038 352.09079 441.33374 355.41907 441.33374 356.05199 C 441.33374 356.68492 447.34551 362.07045 454.69311 368.02074 C 462.0407 373.97102 469.00529 380.29537 470.17163 382.07543 C 474.66127 388.92751 468.33354 392.06741 462.56616 385.84886 C 460.78833 383.932 454.83371 378.74733 449.33374 374.32738 C 428.65701 357.71102 428.43705 354.44198 447.07788 340.65355 C 449.87108 338.58744 453.03746 335.19449 454.11303 333.11449 C 455.32392 330.77291 457.32159 329.44949 459.07397 329.35277 z M 572.92553 329.35277 C 574.67792 329.44949 576.67559 330.77291 577.88647 333.11449 C 578.96208 335.19449 582.1284 338.58744 584.92163 340.65355 C 594.46135 347.70997 598.66724 352.39552 598.63647 355.92894 C 598.59787 360.36495 596.3128 362.98733 582.66577 374.26879 C 576.43244 379.42161 570.18971 384.91946 568.79272 386.48558 C 565.80432 389.83578 561.58753 390.21204 560.44311 387.22972 C 559.23328 384.07697 563.60651 379.0265 576.56616 368.61254 C 582.99154 363.44929 588.76736 358.29752 589.4021 357.16332 C 590.29269 355.57192 588.56516 353.63712 581.83374 348.69457 C 573.03905 342.23704 568.25496 335.40066 569.76928 331.45433 C 570.34875 329.94428 571.56259 329.27754 572.92553 329.35277 z M 322.57007 360.64379 C 324.03782 360.52695 325.87155 361.39264 327.33374 363.29808 C 340.85491 380.91857 345.0485 383.09211 362.06811 381.30199 C 378.18828 379.60647 394.38422 379.6849 402.9353 381.49926 C 423.23506 385.80641 439.80825 400.89787 444.64819 419.47972 C 448.44425 434.05374 447.05242 450.18686 438.04663 495.99926 C 435.52385 508.83251 432.98105 524.72628 432.39624 531.31761 C 431.56727 540.66108 430.86557 543.39155 429.21069 543.70824 C 428.04325 543.93166 426.30487 543.1705 425.34741 542.01683 C 422.81612 538.96685 424.40522 520.91258 429.3396 496.66722 C 435.71308 465.35054 437.47664 452.61097 437.49975 437.73168 C 437.52585 420.91261 435.26949 413.24084 427.79663 404.75121 C 414.44577 389.58383 398.43503 385.78198 363.73999 389.54027 C 347.39727 391.31056 342.09592 390.0916 332.79272 382.42308 C 327.10499 377.73478 319.99975 367.43737 319.99975 363.88207 C 319.99975 361.86019 321.10228 360.76063 322.57007 360.64379 z M 709.44116 360.66136 C 710.90494 360.81137 711.99975 361.90941 711.99975 363.88207 C 711.99975 367.43737 704.89456 377.73478 699.20678 382.42308 C 689.90358 390.0916 684.6022 391.31056 668.25952 389.54027 C 635.83022 386.02742 621.35334 388.76237 607.86694 400.94652 C 591.5586 415.68016 590.26847 433.25119 601.33374 489.99926 C 607.5448 521.85266 609.13559 536.72041 606.79858 541.08715 C 605.1781 544.11501 602.07302 544.94175 600.69507 542.71215 C 600.25729 542.00382 599.59934 536.80507 599.23413 531.15941 C 598.86891 525.5138 596.45628 509.7438 593.8728 496.11449 C 587.42574 462.10247 585.35077 447.62366 585.34155 436.61254 C 585.32195 413.14561 595.33328 396.36443 615.33374 386.3391 C 627.88334 380.04856 642.39861 378.69216 669.3103 381.29418 C 684.57632 382.77021 690.2896 380.89435 697.44702 372.05394 C 699.9513 368.96086 703.2009 364.9449 704.66967 363.13011 C 706.14398 361.30858 707.97738 360.51135 709.44116 360.66136 z M 380.54858 409.39379 C 400.01229 409.20855 416.24466 417.81776 425.11499 434.46019 C 429.6622 442.99164 433.9763 457.73532 432.81225 460.76879 C 432.05196 462.75008 427.27273 463.40115 426.2146 461.66722 C 425.87897 461.11722 424.91965 458.11591 424.08374 454.99926 C 422.59313 449.44153 420.98762 447.99129 419.31811 450.69261 C 418.85627 451.43989 415.54557 453.53617 411.96069 455.35277 C 385.48172 468.77069 347.78541 457.04375 345.64038 434.71996 C 345.28528 431.02442 344.61018 427.99925 344.14038 427.99926 C 342.79084 427.99926 333.02283 434.71052 329.13257 438.3098 C 325.21241 441.93674 320.94309 441.9139 320.23999 438.26293 C 319.53131 434.58308 329.92261 425.93479 342.91772 419.38793 C 356.0293 412.78239 368.87036 409.50493 380.54858 409.39379 z M 651.49194 409.40746 C 663.16896 409.52679 676.00415 412.7985 689.08374 419.38793 C 702.07882 425.93478 712.46819 434.58308 711.75952 438.26293 C 710.93365 442.55131 707.11355 441.56531 698.08764 434.73363 C 693.19457 431.03006 688.62394 427.99926 687.92944 427.99926 C 687.23494 427.99926 686.66577 430.12408 686.66577 432.71996 C 686.66577 443.35839 677.60158 453.37648 663.57007 458.24535 C 648.92267 463.32791 625.63832 460.53752 614.91186 452.41332 C 612.48036 450.57171 610.21874 449.33691 609.88452 449.67113 C 609.55029 450.00535 608.51582 452.91672 607.58569 456.13988 C 606.32174 460.51985 605.14814 462.10796 602.94116 462.42699 C 601.13267 462.68841 599.65937 461.9982 599.14038 460.64574 C 597.93579 457.50662 602.13518 443.37097 606.96264 434.31371 C 615.78234 417.76624 632.03025 409.20857 651.49194 409.40746 z " />
    <path
       style="fill:#502d16"
       d="m 518.08355,651.04315 c 4.8095,-9.83027 13.07184,-18.78333 20.30594,-22.00349 3.14758,-1.4011 12.73661,-3.74723 21.30896,-5.21362 8.57236,-1.46638 15.80687,-2.88692 16.07669,-3.15674 0.95636,-0.95636 -2.76792,-10.74281 -6.00295,-15.77423 -4.04278,-6.28769 -9.9493,-8.89503 -20.15029,-8.89503 -6.45907,0 -9.5974,0.9152 -18.28861,5.33333 -8.19569,4.16624 -11.98875,5.33333 -17.33333,5.33333 -5.34458,0 -9.13764,-1.16709 -17.33333,-5.33333 -8.73126,-4.43849 -11.81471,-5.33333 -18.37761,-5.33333 -10.34259,0 -16.18946,2.88429 -20.39538,10.06114 -3.88938,6.63673 -6.14199,13.62801 -4.68176,14.53048 0.5585,0.34517 8.13849,1.88341 16.84442,3.41831 10.41269,1.83581 18.03963,3.99392 22.28959,6.30703 6.98329,3.80079 14.00191,12.27575 18.3996,22.21744 1.49192,3.37275 2.9141,6.13227 3.1604,6.13227 0.24629,0 2.12624,-3.4306 4.17766,-7.62356 z"
       id="path16" />
    <path
       id="path12"
       style="display:inline;fill:#ffcc00"
       d="M 650.01538 417.33324 C 638.61587 417.33324 626.02252 424.3359 618.55053 434.82933 L 615.68335 438.85668 L 619.36499 442.70043 C 623.74477 447.27194 629.96206 450.40202 637.68921 451.92699 C 645.60696 453.48958 645.32566 453.49029 654.04663 451.87816 C 663.86582 450.06298 670.64189 446.66659 675.16577 441.29027 C 679.83402 435.74236 679.68577 430.58765 674.69507 424.90355 C 670.4549 420.07428 661.52082 417.33324 650.01538 417.33324 z M 645.12085 425.81957 C 645.79677 425.8236 646.50077 425.91091 647.22632 426.09301 C 653.56436 427.68375 655.47565 435.68153 650.37085 439.25707 C 646.42613 442.02006 642.2427 441.88134 639.54077 438.89574 C 634.68922 433.53484 638.5869 425.78063 645.12085 425.81957 z " />
    <path
       id="path9"
       style="fill:#ffcc00"
       d="M 380.22632 417.4309 C 376.89377 417.49003 373.28234 417.96876 368.86108 418.85668 C 355.16894 421.60645 349.36736 432.41455 356.82592 441.27855 C 365.49433 451.58036 383.38413 455.29609 400.43335 450.33519 C 403.23843 449.51898 408.00091 446.66046 411.01733 443.98363 L 416.50171 439.11644 L 413.54077 434.95824 C 408.59539 428.01311 399.81716 421.38302 392.81616 419.30394 C 388.33335 417.97269 384.51101 417.35486 380.22632 417.4309 z M 386.66577 425.33324 C 387.67596 425.3333 388.68747 425.79139 390.33374 426.70824 C 394.82113 429.20738 395.90535 435.08817 392.5603 438.78441 C 389.74898 441.89088 385.61455 442.04813 381.55444 439.20433 C 377.24111 436.18316 378.01629 429.48303 382.99975 426.70824 C 384.64602 425.7916 385.65557 425.33318 386.66577 425.33324 z " />
  </g>
</svg>
